# xmcd CD database file
#
# Track frame offsets:
#	150
#	19571
#	38180
#	53798
#	68067
#	83536
#	103608
#	115598
#	130328
#	145989
#	160947
#	178705
#	191133
#
# Disc length: 2769 seconds
#
# Revision: 0
# Processed by: cddbd v1.5.1PL0 Copyright (c) Steve Scherf et al.
# Submitted via: CDex 1.51
#
DISCID=a90acf0d
DTITLE=Los sabandeños - Cuba profunda
DYEAR=2005
DGENRE=Salsa
TTITLE0=Mi son caliente
TTITLE1=El madrugador
TTITLE2=Aburrida
TTITLE3=Los perros de Curro
TTITLE4=La tarde
TTITLE5=Homenaje a Matamoros
TTITLE6=Babalú
TTITLE7=La cumbamcha
TTITLE8=Drume negrita
TTITLE9=Realidad y fantasía
TTITLE10=La abuelita
TTITLE11=Las perlas de tu boca
TTITLE12=Seguire sin soñar
EXTD=YEAR: 2005
EXTT0=
EXTT1=
EXTT2=
EXTT3=
EXTT4=
EXTT5=
EXTT6=
EXTT7=
EXTT8=
EXTT9=
EXTT10=
EXTT11=
EXTT12=
PLAYORDER=
